<?xml version="1.0" encoding="UTF-8"?>
<!DOCTYPE svg PUBLIC "-//W3C//DTD SVG 1.1//EN" "http://www.w3.org/Graphics/SVG/1.1/DTD/svg11.dtd">
<!-- Creator: CorelDRAW 2020 (64-Bit) -->
<svg xmlns="http://www.w3.org/2000/svg" xml:space="preserve" width="6.45833in" height="2.28224in" version="1.1" style="shape-rendering:geometricPrecision; text-rendering:geometricPrecision; image-rendering:optimizeQuality; fill-rule:evenodd; clip-rule:evenodd"
viewBox="0 0 6299.33 2226.06"
 xmlns:xlink="http://www.w3.org/1999/xlink"
 xmlns:xodm="http://www.corel.com/coreldraw/odm/2003">
 <defs>
  <style type="text/css">
   <![CDATA[
    .fil0 {fill:#FEFEFE}
   ]]>
  </style>
 </defs>
 <g id="Capa_x0020_1">
  <metadata id="CorelCorpID_0Corel-Layer"/>
  <g id="_1402959495600">
   <path class="fil0" d="M5649.08 40.64l0 2181.06 650.25 0 0 -2221.7 -609.61 0c-31.22,0 -40.64,9.42 -40.64,40.64z"/>
   <path class="fil0" d="M-0 40.64l0 2181.06 650.25 0 0 -2221.7 -609.61 0c-31.21,0 -40.64,9.42 -40.64,40.64z"/>
   <path class="fil0" d="M3779.6 2221.7l650.25 0 0 -2181.06c0,-31.22 -9.43,-40.64 -40.64,-40.64l-609.61 0 0 2221.7z"/>
   <path class="fil0" d="M1896.57 1503.71c20,240.37 143.33,428.57 323.04,571.05 322.5,255.69 883.3,200.09 1161.48,-265.11 17.79,-29.75 157.52,-319.49 46.28,-319.49 -192.22,0 -1450.36,-17.68 -1530.8,13.55z"/>
   <path class="fil0" d="M4795.62 1422.43c0,632.68 731.54,911.89 731.54,758.63l0 -1490.17c0,-111.87 -295.81,31.76 -311.98,40.24 -235.09,123.37 -419.56,402.91 -419.56,691.29z"/>
   <path class="fil0" d="M1937.21 1368.24l1530.81 0c0,-125.79 -39.23,-214.51 -81.13,-298.19 -23.03,-45.99 -38.49,-76.8 -71.93,-117.73 -89.26,-109.23 -166.32,-189.56 -318.76,-250.22 -489.62,-194.83 -975.8,104.92 -1075.82,527.48 -9.87,41.7 -47.79,138.65 16.83,138.65z"/>
   <path class="fil0" d="M785.72 690.89l0 1490.17c0,124.78 481.11,-43.85 659.62,-424.14 83.65,-178.2 88.95,-423.31 12.27,-613.52 -171.43,-425.23 -671.89,-575.37 -671.89,-452.51z"/>
  </g>
 </g>
</svg>
