<?xml version="1.0" encoding="UTF-8"?>
<!DOCTYPE svg PUBLIC "-//W3C//DTD SVG 1.1//EN" "http://www.w3.org/Graphics/SVG/1.1/DTD/svg11.dtd">
<!-- Creator: CorelDRAW 2020 (64-Bit) -->
<svg xmlns="http://www.w3.org/2000/svg" xml:space="preserve" width="290px" height="102px" version="1.1" style="shape-rendering:geometricPrecision; text-rendering:geometricPrecision; image-rendering:optimizeQuality; fill-rule:evenodd; clip-rule:evenodd"
viewBox="0 0 561.33 198.36"
 xmlns:xlink="http://www.w3.org/1999/xlink"
 xmlns:xodm="http://www.corel.com/coreldraw/odm/2003">
 <defs>
  <style type="text/css">
   <![CDATA[
    .fil0 {fill:#FEFEFE}
   ]]>
  </style>
 </defs>
 <g id="Capa_x0020_1">
  <metadata id="CorelCorpID_0Corel-Layer"/>
  <g id="_2107472381072">
   <g id="_1402959495600">
    <path class="fil0" d="M503.39 3.62l0 194.35 57.94 0 0 -197.97 -54.32 0c-2.78,0 -3.62,0.84 -3.62,3.62l0 0z"/>
    <path class="fil0" d="M0 3.62l0 194.35 57.95 0 0 -197.97 -54.33 0c-2.78,0 -3.62,0.84 -3.62,3.62l0 0z"/>
    <path class="fil0" d="M336.8 197.97l57.94 0 0 -194.35c0,-2.78 -0.84,-3.62 -3.62,-3.62l-54.32 0 0 197.98 0 -0.01z"/>
    <path class="fil0" d="M169 134c1.79,21.41 12.78,38.18 28.79,50.88 28.74,22.78 78.71,17.83 103.5,-23.62 1.58,-2.65 14.03,-28.47 4.12,-28.47 -17.13,0 -129.24,-1.58 -136.41,1.21l0 0z"/>
    <path class="fil0" d="M427.34 126.75c0,56.38 65.18,81.26 65.18,67.6l0 -132.79c0,-9.96 -26.36,2.83 -27.8,3.59 -20.94,10.99 -37.38,35.9 -37.38,61.6l0 0z"/>
    <path class="fil0" d="M172.63 121.92l136.41 0c0,-11.21 -3.5,-19.11 -7.23,-26.57 -2.06,-4.1 -3.43,-6.84 -6.41,-10.49 -7.96,-9.73 -14.83,-16.89 -28.41,-22.3 -43.63,-17.36 -86.95,9.35 -95.86,47.01 -0.88,3.71 -4.26,12.35 1.5,12.35l0 0z"/>
    <path class="fil0" d="M70.02 61.56l0 132.79c0,11.12 42.87,-3.9 58.78,-37.79 7.45,-15.88 7.92,-37.72 1.09,-54.67 -15.28,-37.89 -59.87,-51.27 -59.87,-40.33l0 0z"/>
   </g>
  </g>
 </g>
</svg>
