<svg width="49" height="48" viewBox="0 0 49 48" fill="none" alt="Bold">
    <path fill-rule="evenodd" clip-rule="evenodd" d="M42.203 6.297a7.184 7.184 0 00-10.166 0l-9.66 9.66a1 1 0 11-1.414-1.414l9.66-9.66a9.184 9.184 0 0112.994 0 9.184 9.184 0 010 12.994l-9.66 9.66a9.184 9.184 0 01-12.994 0 9.306 9.306 0 01-2.42-4.235 1 1 0 011.935-.505 7.306 7.306 0 001.899 3.326 7.184 7.184 0 0010.166 0l9.66-9.66a7.184 7.184 0 000-10.166zm-15.58 15.58a7.184 7.184 0 00-10.166 0l-9.66 9.66a7.184 7.184 0 000 10.166 7.184 7.184 0 0010.166 0l9.66-9.66a1 1 0 011.414 1.414l-9.66 9.66a9.184 9.184 0 01-12.994 0 9.184 9.184 0 010-12.994l9.66-9.66a9.184 9.184 0 0112.994 0 9.306 9.306 0 012.42 4.235 1 1 0 01-1.935.504 7.306 7.306 0 00-1.9-3.325z" fill="#fff"></path>
</svg>